<?xml version="1.0" encoding="UTF-8" standalone="no"?>
<!-- Created with Inkscape (http://www.inkscape.org/) -->

<svg
   width="130.80672mm"
   height="118.98239mm"
   viewBox="0 0 130.80672 118.98239"
   version="1.1"
   id="svg398"
   xml:space="preserve"
   inkscape:version="1.2.2 (b0a8486541, 2022-12-01)"
   sodipodi:docname="koala-logo.svg"
   xmlns:inkscape="http://www.inkscape.org/namespaces/inkscape"
   xmlns:sodipodi="http://sodipodi.sourceforge.net/DTD/sodipodi-0.dtd"
   xmlns="http://www.w3.org/2000/svg"
   xmlns:svg="http://www.w3.org/2000/svg"><sodipodi:namedview
     id="namedview400"
     pagecolor="#ffffff"
     bordercolor="#000000"
     borderopacity="0.25"
     inkscape:showpageshadow="2"
     inkscape:pageopacity="0.0"
     inkscape:pagecheckerboard="0"
     inkscape:deskcolor="#d1d1d1"
     inkscape:document-units="mm"
     showgrid="false"
     inkscape:zoom="1.4912879"
     inkscape:cx="337.96291"
     inkscape:cy="377.19074"
     inkscape:window-width="1920"
     inkscape:window-height="2091"
     inkscape:window-x="26"
     inkscape:window-y="23"
     inkscape:window-maximized="0"
     inkscape:current-layer="layer1" /><defs
     id="defs395" /><g
     inkscape:label="Layer 1"
     inkscape:groupmode="layer"
     id="layer1"
     transform="translate(-44.138057,-70.911836)"><path
       id="path561"
       style="fill:#000000;stroke-width:0.143199"
       d="M 132.99258 97.392907 C 132.09867 97.392907 130.49786 97.77832 129.63155 98.20216 C 128.72292 98.646703 127.53402 99.768983 127.39809 100.31056 C 127.33409 100.56562 127.2096 100.68076 126.99863 100.68004 C 126.82995 100.67941 124.21107 100.58724 121.17883 100.47489 C 107.65651 99.97388 98.949542 100.08509 87.240336 100.90897 L 85.880212 101.00457 L 85.51641 100.49349 C 85.091044 99.895271 84.24505 99.193402 83.470023 98.796439 C 82.64693 98.374859 80.86337 97.960314 79.872827 97.960314 C 77.138075 97.960314 74.018469 99.847043 73.707312 101.68877 C 73.654542 102.00112 73.536295 102.25834 73.444795 102.26134 C 73.353275 102.26434 71.903143 102.44743 70.222253 102.66855 C 63.335022 105.4452 67.370159 109.57371 71.03564 108.86507 C 72.81052 108.62015 74.289661 108.44645 74.322261 108.47905 C 74.354851 108.51165 74.277319 109.17098 74.150179 109.94408 C 73.219136 115.60553 73.107586 122.74035 73.869059 127.88924 C 74.208536 130.18478 74.221587 130.07061 73.600341 130.20382 C 72.215171 130.50086 70.92938 131.48421 70.327673 132.70651 C 70.039397 133.2922 69.985058 133.61747 69.985058 134.76272 C 69.985058 136.59226 70.355452 137.41739 71.666092 138.50616 C 72.174108 138.92822 73.848862 140.39268 75.387312 141.76074 L 78.184558 144.24793 L 78.282743 159.58911 C 78.336943 168.02653 78.36087 177.73337 78.33597 181.15937 L 78.290494 187.38845 L 77.574776 187.41377 C 77.180976 187.42767 72.721685 187.44343 67.66582 187.44943 L 58.473616 187.45976 L 58.093278 187.78687 C 57.801678 188.03773 57.712939 188.24556 57.712939 188.67726 C 57.712939 189.10896 57.801649 189.31627 58.093278 189.56713 L 58.473616 189.89424 L 125.3486 189.89424 C 148.14141 189.89424 163.45953 189.88008 174.36112 189.85548 C 174.42732 189.85748 174.70425 189.58866 174.70425 189.54646 C 174.99908 189.2597 174.94479 189.02131 174.93369 188.72945 C 174.94269 188.41753 174.86479 188.14527 174.65826 187.81478 C 174.55804 187.53334 174.49016 187.42673 174.32184 187.35537 C 171.89865 187.35037 169.16707 187.34475 168.82812 187.33935 L 167.43182 187.31662 L 167.43182 182.01823 L 167.43182 176.72036 L 169.47253 176.70848 C 170.59483 176.70248 172.05182 176.65258 172.71005 176.59789 C 174.32136 176.46408 174.4489 176.31094 174.4469 174.5205 C 174.4439 172.42185 173.95481 171.06376 172.77723 169.88616 C 172.1932 169.30218 172.14433 169.20194 172.28631 168.89035 C 172.37311 168.69986 172.44392 168.2271 172.44392 167.83977 C 172.44392 165.10004 169.91395 162.86098 165.37924 161.5864 L 164.01859 161.204 L 163.70285 159.83302 C 163.28481 158.01949 162.4097 155.39286 161.69471 153.80497 C 158.6696 147.08654 154.27709 143.98502 147.92604 144.08308 L 145.96233 144.11357 L 144.95206 142.58085 C 142.70041 139.1645 139.3524 136.46991 135.749 135.17406 C 135.05985 134.92624 134.49637 134.71007 134.49637 134.69347 C 134.49637 134.67697 134.85365 134.12936 135.29063 133.47649 C 137.27496 130.51191 138.67705 126.45664 139.22786 122.08959 C 139.62992 118.90187 139.33394 113.06108 138.58345 109.37357 C 138.40394 108.4914 138.26806 107.75541 138.28166 107.73801 C 138.31236 107.69861 144.74166 108.36424 145.37891 108.47337 L 145.84399 108.55347 L 145.84399 110.23657 C 145.84399 110.23657 146.17082 108.79415 146.61501 108.88885 C 147.40998 108.82685 148.60197 102.89749 146.71474 102.63703 L 146.47186 102.54556 L 145.74633 102.44841 C 145.34745 102.39501 143.73897 102.1851 142.17187 101.98177 L 139.32243 101.61229 L 139.12916 100.94773 C 138.84491 99.971156 137.84494 98.932996 136.59701 98.318949 C 135.52579 97.791843 133.97263 97.392907 132.99258 97.392907 z M 133.07836 99.913167 C 134.27297 99.938437 135.48152 100.31141 136.25802 101.02266 C 136.94981 101.65636 136.9614 102.13066 136.29936 102.75485 C 136.03086 103.00808 135.49929 103.36549 135.11803 103.54912 C 134.5806 103.80793 134.11911 103.89456 133.06441 103.93566 C 131.8588 103.98256 131.62157 103.94946 130.98185 103.6442 C 129.45968 102.91783 129.04479 101.77411 129.98243 100.88985 C 130.70299 100.21027 131.88378 99.887895 133.07836 99.913167 z M 79.583955 100.40048 C 80.516409 100.36738 81.528317 100.52055 82.229272 100.84334 C 83.192465 101.28689 83.87794 101.94605 83.99764 102.54453 C 84.177127 103.44195 83.302164 104.41669 82.082511 104.67825 C 80.805392 104.95211 79.611427 104.76455 78.277058 104.08035 C 77.388735 103.62488 76.214135 102.51384 76.214135 102.12905 C 76.214135 101.74148 77.129284 101.02217 78.076037 100.66506 C 78.49402 100.50741 79.024483 100.42036 79.583955 100.40048 z M 105.11935 102.55797 C 106.79775 102.55497 108.68401 102.56595 110.94018 102.58535 C 118.90962 102.65555 121.50749 102.73592 126.1408 103.05768 L 127.30817 103.13881 L 127.75311 103.85504 L 128.19804 104.57076 L 126.72888 104.47516 C 125.55967 104.39896 124.91339 104.26223 123.56215 103.80492 C 120.94152 102.91801 118.67504 102.89212 116.30988 103.72172 C 115.57142 103.98042 115.09361 103.99677 108.64885 103.98217 C 101.75328 103.96657 97.696232 104.07967 91.035453 104.47361 C 89.066477 104.59006 87.108991 104.7203 86.685848 104.763 C 85.937142 104.8386 85.919422 104.8318 86.019222 104.51495 C 86.07563 104.3359 86.154405 104.0178 86.194405 103.80802 C 86.281365 103.35148 86.246655 103.35686 91.24991 103.04683 C 96.918837 102.69531 100.08403 102.56679 105.11935 102.55797 z M 138.46615 103.98837 L 142.27522 104.45346 C 144.3701 104.70928 146.11715 104.95141 146.15715 104.99141 C 146.19715 105.03141 146.19102 105.30223 146.14372 105.59344 C 146.09652 105.88465 146.01785 106.11507 145.96905 106.10607 C 145.37888 105.99375 142.50375 105.64754 140.20041 105.41154 C 138.60919 105.24851 137.28517 105.09304 137.25847 105.06634 C 137.23177 105.03954 137.49272 104.78622 137.83828 104.50307 L 138.46615 103.98837 z M 74.931526 104.52167 L 75.65448 105.07151 L 76.376916 105.62186 L 74.9708 105.79756 C 74.197503 105.89436 72.340856 106.1396 70.844437 106.34275 C 68.199854 106.91118 66.989256 105.73143 71.670743 104.96557 L 74.931526 104.52167 z M 119.67505 105.50094 C 121.91746 105.49194 123.76963 106.11678 125.61629 107.50495 C 126.42304 108.11142 128.19791 109.99748 128.19391 110.2438 C 128.19293 110.3008 127.96733 110.49272 127.69265 110.67065 C 127.39943 110.8606 127.19294 111.11146 127.19294 111.27785 C 127.19294 111.43373 127.41833 112.10559 127.69368 112.77078 C 128.29718 114.22867 128.61982 115.5327 128.62282 116.52404 C 128.62482 117.3032 128.49365 117.42854 127.66888 117.43354 C 127.14176 117.43654 126.7635 118.082 126.7635 118.97764 C 126.7635 120.08966 126.49449 120.85483 125.89172 121.45759 C 125.19514 122.15417 123.57542 122.94545 122.23562 123.24353 L 121.14318 123.4864 L 120.79229 123.03889 C 120.3342 122.45355 119.61909 122.41904 119.0818 122.9562 C 118.6795 123.35849 118.67219 123.68214 119.02651 125.38293 C 119.23477 126.38248 119.13449 128.28603 118.80637 129.55735 C 118.32265 131.43162 117.0558 133.50957 115.68149 134.68365 C 113.60619 136.45666 110.70866 137.70745 107.41688 138.25088 C 104.8146 138.68047 101.03234 138.65437 99.605989 138.19765 C 97.817567 137.62485 94.578545 135.40151 92.914925 133.60465 C 92.391939 133.03981 91.519434 131.98983 90.975508 131.27146 C 89.870125 129.81158 87.956571 126.55393 87.956571 126.13172 C 87.956571 125.43914 88.595733 122.8385 89.108439 121.44519 C 89.789802 119.59348 89.82856 119.00928 89.297574 118.59161 C 88.919987 118.29459 88.181475 118.20145 87.853735 118.40971 C 87.636255 118.5479 86.928543 120.10259 86.588696 121.18835 C 86.448056 121.63766 86.280842 121.97293 86.217142 121.93353 C 85.853705 121.70891 84.443451 116.31701 84.149051 114.02703 C 84.058813 113.3251 84.081531 113.23593 84.452909 112.84829 C 85.022776 112.25348 85.984972 111.921 87.110111 111.93 C 88.299494 111.94 89.241944 112.37886 90.506803 113.51285 L 91.410107 114.32314 L 91.83127 113.91903 C 92.06298 113.69704 92.252433 113.4388 92.252433 113.3449 C 92.252433 113.02589 90.286405 111.31793 89.441752 110.90319 C 88.669026 110.52374 88.472466 110.4903 87.019677 110.4903 C 85.574247 110.4903 85.373634 110.5241 84.679768 110.88407 C 84.262301 111.10066 83.894347 111.27785 83.862247 111.27785 C 83.830147 111.27785 83.803853 110.64238 83.803853 109.86553 L 83.803853 108.45321 L 84.412601 108.22842 C 85.495834 107.8283 86.148003 107.6996 87.102876 107.69874 C 89.403458 107.69674 91.83203 108.85644 93.821846 110.90681 C 94.17297 111.26863 94.56286 111.56465 94.68846 111.56465 C 94.81405 111.56465 95.43258 111.31506 96.063053 111.01016 C 100.39127 108.91711 104.9352 108.56498 109.28343 109.98594 C 110.01196 110.22401 110.73195 110.41899 110.88334 110.41899 C 111.04395 110.41899 111.70644 109.84818 112.47445 109.04904 C 114.88973 106.5359 116.96804 105.51184 119.67505 105.50094 z M 108.9465 106.43008 C 110.45962 106.43408 111.44144 106.45881 111.44144 106.51121 C 111.44144 106.56731 111.18284 106.87649 110.86732 107.19799 L 110.29371 107.78245 L 108.71396 107.38558 C 106.6816 106.8749 103.97261 106.64906 102.06165 106.83161 C 100.3701 106.9932 97.750661 107.64355 96.305932 108.26046 C 95.739245 108.50244 95.191205 108.69864 95.088435 108.69764 C 94.985668 108.69564 94.627028 108.46462 94.291068 108.18295 C 93.955108 107.90128 93.349357 107.48945 92.944897 107.26827 L 92.209025 106.86623 L 93.125765 106.77941 C 95.083524 106.5936 104.40719 106.41793 108.9465 106.43008 z M 131.03094 107.13546 L 131.72548 107.20729 C 132.10729 107.24689 133.1474 107.33138 134.03696 107.39488 C 134.92653 107.45838 135.70919 107.56853 135.77639 107.63983 C 135.94562 107.81933 136.60403 111.5885 136.79958 113.49787 C 137.01816 115.62991 137.01882 120.04939 136.80062 121.8033 C 136.22701 126.41823 134.45669 130.95487 132.32906 133.26307 C 131.66351 133.98511 131.49924 134.01297 130.10852 133.63876 C 129.29171 133.419 129.17866 133.33612 128.51999 132.47139 C 127.63639 131.31141 125.75649 129.77421 124.45977 129.15169 L 123.47533 128.67937 L 124.23601 127.89027 C 125.3418 126.74363 125.84922 126.03646 126.35733 124.93179 C 126.66802 124.25627 127.03014 123.75317 127.5216 123.31432 C 128.28989 122.62824 128.80169 121.69419 129.07292 120.48504 C 129.22215 119.81973 129.28769 119.73006 129.68426 119.64426 C 130.31078 119.50868 130.84734 119.09279 131.06092 118.57714 C 131.28583 118.03417 131.18514 116.13524 130.83922 114.39342 L 130.59893 113.18316 L 130.96635 112.81574 C 131.47902 112.30306 131.55953 111.8331 131.37459 110.42467 C 131.28629 109.75219 131.17271 108.73668 131.12241 108.16848 L 131.03094 107.13546 z M 81.368859 107.66153 L 81.370926 109.14775 C 81.372626 110.78467 81.665759 113.8453 82.017399 115.89772 C 83.213129 122.87681 86.42101 129.87929 90.591552 134.61492 C 93.240724 137.62307 96.955529 140.12593 100.46899 141.2693 C 101.81435 141.70713 101.74367 141.70108 101.63894 141.3711 C 101.56064 141.12454 101.69474 141.09868 103.52668 141.00678 C 104.61127 140.95238 105.82167 140.87093 106.21644 140.82643 C 106.93234 140.74563 106.93483 140.74703 107.19054 141.28325 C 107.88312 142.7356 110.17911 145.07075 112.32821 146.50826 C 115.54634 148.66083 119.61681 149.97544 123.7208 150.18762 C 124.60684 150.23342 125.33155 150.31824 125.33155 150.37624 C 125.33155 150.43424 125.1777 150.58258 124.98945 150.70593 C 124.8012 150.82927 124.25317 151.29498 123.77196 151.74049 C 122.98944 152.46494 122.89707 152.60936 122.89707 153.10785 C 122.89707 153.84139 123.28724 154.23802 124.00863 154.23802 C 124.46131 154.23802 124.72372 154.09023 125.65298 153.31456 C 128.45282 150.97751 131.30811 149.90185 134.71134 149.90185 C 136.96186 149.90185 138.47992 150.26248 140.5823 151.29504 C 147.03705 154.46527 150.54525 161.66613 150.56205 171.77958 C 150.56605 174.49305 150.42702 176.16354 149.93935 179.22615 C 149.53571 181.76087 149.53762 182.35353 149.94762 182.79028 C 150.14641 183.00187 150.87115 183.3435 151.80074 183.66309 C 152.6404 183.95175 153.71408 184.40392 154.18664 184.6682 C 155.27624 185.27755 156.69243 186.72898 156.69243 187.236 C 156.69243 187.2805 154.13091 187.31232 151.00027 187.30732 C 145.09837 187.29732 144.64655 187.25782 143.75833 186.67583 C 143.2903 186.36917 142.94495 185.76213 142.94495 185.24491 C 142.94495 185.04253 143.10844 184.47517 143.30823 183.98452 C 143.50804 183.49385 143.7089 182.73822 143.7542 182.30504 C 143.91324 180.78404 143.09 177.66333 142.04784 175.83618 C 141.2587 174.45262 139.79702 172.73241 138.58862 171.76511 C 137.34729 170.77147 135.22048 169.6066 133.89175 169.19266 C 132.89009 168.8806 132.4641 169.02075 132.10116 169.78177 C 131.88097 170.2435 131.87847 170.33373 132.07119 170.67732 C 132.18913 170.88747 132.42982 171.13151 132.60604 171.21941 C 133.13644 171.48384 133.11346 171.53075 132.3797 171.68811 C 128.86036 172.44287 124.91011 172.0771 121.70852 170.70058 C 118.66547 169.39223 117.31499 168.29354 111.15464 162.11247 C 105.06067 155.99801 103.80701 154.93309 100.3925 152.96936 C 99.10202 152.22721 98.538961 152.00418 96.741048 151.52345 C 85.240875 148.44853 78.374434 140.59674 76.370198 128.22978 C 75.571854 123.30362 75.627617 115.89448 76.508691 109.84589 C 76.76269 108.1022 76.650377 108.20195 78.599003 107.99949 C 79.532116 107.90249 80.537112 107.78655 80.832458 107.74215 L 81.368859 107.66153 z M 118.95623 108.77206 C 117.45077 108.77206 117.33192 108.79456 116.37861 109.26092 C 115.33479 109.77153 113.44331 111.49931 113.01861 112.32998 C 112.81724 112.72385 112.82667 112.75137 113.30696 113.14957 C 113.94185 113.67593 114.0733 113.6711 114.4609 113.10409 C 114.9516 112.38643 116.03687 111.28656 116.63234 110.90371 C 117.77337 110.17016 119.36525 110.0059 120.53184 110.50167 C 123.07737 111.58346 124.27284 115.40554 122.88209 118.0149 C 122.121 119.44284 120.83416 120.15638 119.02031 120.15638 C 118.11579 120.15638 118.02812 120.24048 118.02812 121.11497 L 118.02812 121.62089 L 119.50452 121.56611 C 120.81824 121.51751 121.08371 121.46073 121.92039 121.04883 C 123.07412 120.48085 123.91901 119.59402 124.51093 118.3291 C 124.89849 117.50093 124.96206 117.18728 125.01736 115.84604 C 125.06976 114.57344 125.02986 114.14271 124.78171 113.32578 C 124.21646 111.46486 122.93577 109.91861 121.32198 109.14826 C 120.6193 108.81281 120.36427 108.77206 118.95623 108.77206 z M 100.74804 121.22091 C 100.15719 121.22991 99.56352 121.35549 99.131599 121.59401 C 97.412527 122.54334 96.541973 125.00649 96.522973 128.97599 C 96.507153 132.27423 97.233249 133.45533 99.460778 133.75658 C 100.68784 133.92253 102.36889 133.78318 103.13549 133.45169 C 104.05302 133.05499 104.68139 132.39079 104.9297 131.55465 C 105.46626 129.74775 104.9098 124.62284 104.01864 123.16343 C 103.63438 122.53415 102.93766 121.8586 102.34794 121.54337 C 101.92673 121.31822 101.33889 121.21166 100.74804 121.22091 z M 109.2085 122.34332 C 108.95966 122.35712 108.70689 122.43232 108.46643 122.5831 C 107.41361 123.24305 107.5053 124.89422 108.62249 125.39378 C 109.46798 125.77187 110.45189 125.37138 110.81564 124.50081 C 111.28411 123.37959 110.28682 122.28354 109.2085 122.34332 z M 93.297847 122.51437 C 92.827957 122.50437 92.340647 122.68563 92.050895 123.00581 C 91.441209 123.67951 91.51896 124.90807 92.205407 125.44804 C 92.454263 125.64375 92.789399 125.74105 93.216715 125.74105 C 93.752945 125.74105 93.93494 125.66255 94.343261 125.25426 C 94.751527 124.84594 94.830053 124.66445 94.830053 124.12823 C 94.830053 123.35099 94.46086 122.82323 93.753633 122.58982 C 93.60887 122.54202 93.45448 122.51767 93.297847 122.51437 z M 122.87485 125.64545 C 122.99374 125.65445 123.0329 125.69205 123.00973 125.76172 C 122.97833 125.85582 122.61781 126.22014 122.20874 126.57149 L 121.46512 127.21021 L 121.46512 126.54307 C 121.46512 125.8212 121.47312 125.81406 122.44491 125.67749 C 122.55729 125.66169 122.65137 125.65128 122.72861 125.64648 C 122.78651 125.64248 122.83522 125.64245 122.87485 125.64545 z M 121.10494 130.46686 C 121.11804 130.46686 121.59082 130.62412 122.15552 130.81619 C 124.3747 131.57099 125.8283 132.67063 127.26218 134.68004 C 127.97107 135.67347 128.20897 135.81941 129.51011 136.06031 C 132.65873 136.6433 135.6875 137.61165 137.27656 138.54285 C 138.50132 139.26063 140.17237 140.60373 141.13007 141.63982 C 143.31323 144.00173 144.78978 146.93398 145.60938 150.53747 C 145.93402 151.96479 145.86218 152.02706 144.89573 151.15965 C 143.1784 149.61824 140.49492 148.32726 137.86154 147.77536 C 136.32369 147.45305 134.09726 147.40726 131.7539 147.6503 C 129.13031 147.92239 122.35207 147.76433 120.60574 147.39037 C 116.75051 146.56478 114.1463 145.25783 111.65125 142.89607 C 110.56843 141.87108 109.31676 140.39092 109.455 140.29882 C 109.4841 140.27942 110.0233 140.11716 110.65338 139.93863 C 113.36176 139.17108 115.71798 137.8871 117.4757 136.21999 C 119.09742 134.6819 120.41045 132.70801 120.89875 131.07509 C 120.99885 130.74037 121.09174 130.46686 121.10494 130.46686 z M 74.447835 132.6166 C 74.72559 132.6096 74.925325 132.6805 74.925325 132.83157 C 74.925325 133.40344 76.415849 137.46383 77.198055 139.02292 C 77.682078 139.98772 78.055912 140.77682 78.029012 140.77682 C 78.002122 140.77682 77.470132 140.30713 76.846655 139.73296 C 76.223169 139.15881 75.04509 138.11806 74.228727 137.41992 C 72.559348 135.99232 72.265008 135.51806 72.405065 134.48057 C 72.511015 133.69568 72.848549 133.19975 73.503706 132.86568 C 73.814502 132.70722 74.17008 132.62323 74.447835 132.6166 z M 105.9963 133.33077 C 105.64184 133.33077 105.54093 133.42657 105.28316 134.00928 C 104.90195 134.87108 104.51677 135.28168 103.70858 135.68721 C 102.82642 136.12984 102.41192 136.21266 101.09117 136.20966 C 99.593207 136.20666 98.712726 135.90308 97.865527 135.0981 C 97.294621 134.5557 97.129109 134.47154 96.770503 134.54154 C 96.237386 134.6456 96.107121 134.85467 96.283711 135.32341 C 96.616977 136.20806 97.924511 137.17803 99.272676 137.54033 C 99.703946 137.65622 100.54282 137.75547 101.13665 137.76047 C 104.05632 137.78597 106.2412 136.39066 106.76834 134.16431 C 106.88316 133.67936 106.56026 133.33077 105.9963 133.33077 z M 148.22059 146.36511 L 148.22059 146.36563 C 148.83345 146.38143 149.61208 146.45713 150.32899 146.58215 C 152.63083 146.98357 154.28284 147.84262 155.96999 149.51531 C 158.43712 151.96125 160.03832 155.267 161.42185 160.76992 C 161.73276 162.00659 162.09026 163.13197 162.21612 163.27106 C 162.35465 163.42412 162.84991 163.59154 163.47082 163.69532 C 166.72874 164.23983 169.86278 166.00923 169.86578 167.30492 C 169.86627 167.53863 169.5466 167.55483 165.10483 167.54883 C 160.02459 167.54183 159.47653 167.47833 158.94759 166.82898 C 158.76669 166.60694 158.69696 166.26454 158.69696 165.59908 C 158.69696 165.03161 158.60756 164.50086 158.46441 164.2188 C 157.4292 162.17942 154.58379 160.34445 151.92373 160.00045 L 151.1031 159.894 L 150.4866 158.53388 C 150.14741 157.78566 149.59027 156.72254 149.24844 156.17123 C 148.81347 155.46968 148.61173 154.97529 148.57613 154.5243 C 148.35795 151.76018 147.9684 149.58108 147.34261 147.62343 C 147.04583 146.695 147.02309 146.50961 147.19895 146.44211 C 147.29525 146.40521 147.45934 146.38138 147.67127 146.37028 C 147.83021 146.36228 148.01631 146.36001 148.22059 146.36511 z M 80.965783 146.593 C 81.058883 146.6505 82.23482 147.65967 83.57906 148.83576 C 84.923309 150.01186 86.700177 151.56557 87.52714 152.28826 C 88.354113 153.01094 91.217554 155.53319 93.890576 157.89361 C 96.563599 160.25399 100.17226 163.43451 101.90972 164.96139 C 103.64721 166.48828 105.09046 167.79347 105.11676 167.86147 C 105.14326 167.93017 100.5595 167.98601 94.806282 167.98601 C 88.298787 167.98668 84.102341 168.04291 83.517565 168.13691 C 83.005628 168.21921 82.231983 168.45689 81.798807 168.66556 C 81.36563 168.87424 80.962869 169.06964 80.903772 169.09964 C 80.844672 169.12964 80.796801 164.05445 80.796801 157.82126 C 80.796801 149.13826 80.836081 146.5128 80.965783 146.593 z M 91.442146 152.42314 C 91.459626 152.40564 92.470695 152.70477 93.689038 153.08822 C 94.907382 153.47165 96.375 153.92866 96.950337 154.10366 C 98.125136 154.46103 100.5685 155.80401 102.15467 156.96395 C 102.73353 157.38725 105.46288 159.96574 108.21942 162.69383 C 110.97598 165.42187 113.81603 168.16331 114.53066 168.78597 C 117.75987 171.59957 119.99119 172.81604 124.04274 173.97066 L 124.04274 173.97014 C 124.40543 174.07354 123.35697 174.11556 120.24814 174.12156 L 115.95176 174.13034 L 115.44068 173.67094 C 114.58307 172.90013 102.59302 162.25792 101.29064 161.1115 C 100.61959 160.52081 99.423274 159.46681 98.631888 158.76952 C 97.840499 158.07222 95.891642 156.36642 94.301403 154.97854 C 92.711159 153.59066 91.424646 152.44064 91.442146 152.42314 z M 152.14232 162.5419 C 152.50069 162.54199 153.57283 162.97223 154.23366 163.4049 C 155.70549 164.36854 156.3016 165.22613 156.16946 166.19026 C 156.11756 166.56914 156.17005 166.97057 156.31881 167.32662 C 156.44528 167.62927 156.54877 167.90092 156.54877 167.93072 C 156.54877 168.03572 152.98488 167.98339 152.92418 167.87749 C 152.89028 167.81839 152.81891 167.3104 152.76554 166.74836 C 152.71214 166.18633 152.51111 165.03109 152.31905 164.18108 C 152.127 163.33105 151.99966 162.60601 152.03586 162.56981 C 152.05466 162.55101 152.09116 162.5419 152.14232 162.5419 z M 95.837744 170.5626 L 108.31243 170.5626 L 109.68806 171.81575 C 110.44455 172.5049 111.32562 173.3083 111.64608 173.60169 L 112.22899 174.13448 L 96.636145 174.13861 L 81.043815 174.14223 L 81.139933 173.32212 C 81.275013 172.17282 81.838369 171.34415 82.831302 170.83494 C 83.341538 170.57318 83.857224 170.56312 95.837744 170.56312 L 95.837744 170.5626 z M 153.04045 170.5626 L 160.92679 170.5626 C 169.7634 170.56233 169.60593 170.546 170.77839 171.57804 C 171.39823 172.12363 171.80933 172.90475 171.90183 173.7128 L 171.94266 174.0704 L 162.47657 174.1076 L 153.00996 174.14429 L 153.02547 172.35371 L 153.04045 170.5626 z M 136.07198 172.84877 L 136.7877 173.3831 C 137.18134 173.67697 137.50342 173.96767 137.50342 174.02957 L 137.50342 174.03009 C 137.50342 174.09199 136.39722 174.14223 135.04517 174.14223 C 133.69315 174.14223 132.62345 174.1057 132.66805 174.0611 C 132.71275 174.0165 133.16687 173.89246 133.67729 173.78566 C 134.18772 173.67886 134.93537 173.42471 135.33869 173.22032 L 136.07198 172.84877 z M 128.89722 176.66559 L 128.89722 176.6661 L 128.89722 176.66662 L 128.89722 176.66714 C 130.79212 176.66514 132.73399 176.67411 134.26537 176.69401 L 139.83402 176.76739 L 140.234 177.64899 C 140.87344 179.05929 141.21594 180.20774 141.31094 181.25652 C 141.38814 182.10933 141.34974 182.3607 141.00553 183.23573 C 140.52677 184.45297 140.44671 186.10512 140.8319 186.82931 L 141.06806 187.27269 L 138.82013 187.36571 L 138.82013 187.36623 C 137.58392 187.41753 135.28401 187.45653 133.70882 187.45253 L 132.33009 187.44943 L 132.33009 187.45459 L 112.85531 187.45459 L 112.85531 187.44271 C 112.34535 187.44183 111.99912 187.43792 111.51172 187.43651 L 111.51172 187.43857 L 102.8492 187.43857 L 102.8492 187.45976 L 91.823002 187.45976 L 80.796801 187.45976 L 80.796801 182.09006 L 80.796801 176.71985 L 91.823002 176.71985 L 92.037459 176.71985 L 92.037459 176.71261 L 111.51172 176.71261 L 111.51172 176.72243 L 115.0929 176.72398 L 115.09755 176.72812 L 122.55239 176.72812 L 123.81071 176.7059 C 125.15436 176.6824 127.00235 176.66789 128.89722 176.66559 z M 152.75417 176.71985 L 158.80444 176.71985 L 164.8542 176.71985 L 164.8542 182.01823 L 164.8542 187.31662 L 162.08486 187.31662 L 159.31501 187.31662 L 159.13311 186.70839 C 158.51516 184.63806 156.39776 182.72606 153.49986 181.62187 C 152.18316 181.12016 152.10212 181.06564 152.16712 180.72942 C 152.20522 180.53252 152.35294 179.55027 152.49527 178.54609 L 152.75417 176.71985 z " /><path
       style="fill:#000000;stroke:#000000;stroke-width:0.765;stroke-dasharray:none;stroke-opacity:1"
       d="m 70.423315,101.2513 c -0.4568,0.88904 -1.23712,1.99591 -1.73403,2.45972 l -0.90348,0.84328 0.22506,2.08329 c 0.28332,2.62243 -0.26285,4.64433 -1.760632,6.51788 -0.554502,0.69363 -0.965226,1.38486 -0.912719,1.53609 0.05255,0.15123 0.07593,0.8862 0.05205,1.63328 -0.03565,1.1151 -0.199982,1.62636 -0.917836,2.85549 -0.480922,0.82346 -1.18296,2.53025 -1.560077,3.79287 -0.61407,2.05597 -0.776558,2.35343 -1.556077,2.84871 -1.15446,0.73351 -2.312976,0.48684 -2.965165,-0.63133 -0.26451,-0.45348 -0.461816,-0.9102 -0.438465,-1.01492 0.02335,-0.10473 -0.175478,-0.30253 -0.441848,-0.43958 -0.266358,-0.13705 -0.603707,-0.63293 -0.749645,-1.10199 -0.14594,-0.46905 -0.567688,-1.07611 -0.937208,-1.34899 -0.369517,-0.2729 -0.85959,-0.98712 -1.089032,-1.58718 -0.313831,-0.82072 -0.685156,-1.23076 -1.498928,-1.65517 -1.388736,-0.72426 -2.498111,-2.44568 -2.562362,-3.97601 -0.04384,-1.04415 -0.183812,-1.2655 -1.423357,-2.25069 -3.029421,-2.40784 -4.750959,-6.31967 -4.435919,-10.07966 0.07972,-0.95134 0.01896,-2.590977 -0.135007,-3.643637 -0.399587,-2.7319 -0.01507,-6.32665 0.96047,-8.979458 0.764293,-2.07837 1.432471,-3.24493 4.37217,-7.63335 1.953314,-2.91591 2.68781,-5.22397 2.292478,-7.20376 -0.335978,-1.68255 -0.296727,-1.86267 0.557853,-2.56075 1.005841,-0.82156 2.270643,-0.46061 3.930954,1.12185 1.628336,1.55198 4.145527,4.73098 4.508852,5.6943 0.164844,0.43707 1.369332,1.58418 3.07138,2.92509 3.301385,2.60088 5.137155,4.62024 6.213425,6.83484 1.94239,3.996718 1.87968,8.984408 -0.16295,12.959775 z m 0.35807,-6.791177 c 0.0297,-2.45708 -0.57029,-4.410868 -2.09532,-6.823568 -1.24896,-1.97596 -1.819041,-2.56938 -4.593668,-4.78183 -2.42266,-1.93178 -3.361442,-2.85841 -3.99124,-3.93956 -0.967747,-1.66129 -3.942504,-5.19948 -5.012522,-5.96193 -1.428643,-1.01798 -2.10578,-0.36871 -1.364246,1.30807 1.03591,2.34241 0.914111,5.92475 -0.356781,10.49371 -1.018277,3.6608 -2.287944,6.461282 -4.707947,10.384208 -1.56059,2.52979 -1.823891,3.1277 -2.28271,5.183717 -0.665994,2.98449 -0.41479,4.87562 0.967606,7.28397 0.969556,1.6891 2.890509,3.736 3.670698,3.91135 0.212989,0.0478 0.771571,-0.27349 1.241334,-0.71413 1.208496,-1.13356 3.781388,-2.39065 6.982491,-3.41158 2.916904,-0.93029 7.831165,-3.64086 8.898675,-4.90826 1.54969,-1.83991 2.60774,-5.051387 2.64363,-8.024167 z M 66.88508,107.19981 c -0.10876,-1.86052 -0.194352,-1.88735 -2.292207,-0.71853 -1.062092,0.59173 -3.26074,1.51217 -4.885889,2.04542 -3.169615,1.04003 -5.235323,2.06054 -6.892994,3.40533 -0.966059,0.7837 -1.030683,0.9089 -0.939768,1.82057 0.141621,1.42016 0.908219,2.71586 1.930985,3.26376 0.789117,0.42272 1.102021,0.42767 2.700779,0.0427 3.868873,-0.93172 8.058885,-3.33836 9.317781,-5.35193 0.577851,-0.92425 1.132963,-3.28173 1.061333,-4.50726 z m -2.738215,8.13006 c -0.05354,-0.0843 -0.881791,0.2841 -1.840546,0.81862 -0.958745,0.53452 -2.84341,1.30265 -4.188146,1.70695 -1.344737,0.4043 -2.465442,0.82693 -2.490468,0.93917 -0.07413,0.33247 1.211912,1.88804 1.639785,1.98344 0.787892,0.17568 4.397533,-1.00877 5.537764,-1.81715 1.101066,-0.78058 1.177067,-0.90607 1.304099,-2.15334 0.07421,-0.72844 0.09107,-1.39341 0.03751,-1.47769 z m -4.096295,6.12036 c -2.241236,0.60411 -2.58185,0.84852 -1.808875,1.29801 1.054134,0.61299 3.631653,-0.35474 3.877126,-1.45567 0.07639,-0.34261 -0.326007,-0.31194 -2.068251,0.15766 z m 1.086954,2.35937 c -0.07808,-0.0174 -0.540447,0.0734 -1.027498,0.20191 -0.789158,0.20812 -0.852623,0.28538 -0.583032,0.70969 0.238739,0.37575 0.431552,0.44017 0.914368,0.30552 0.530039,-0.14785 1.091246,-1.12901 0.696157,-1.2171 z M 53.126909,78.953535 c -0.07078,-0.25798 -0.253714,-0.0586 -0.516941,0.56244 -0.224091,0.52889 -1.382914,2.40821 -2.575159,4.1763 -1.192253,1.76807 -2.465843,3.89381 -2.83021,4.72388 -0.764502,1.74161 -1.605512,6.284838 -1.474858,7.967348 l 0.08568,1.10343 1.877577,-3.10541 c 2.176172,-3.599268 3.281674,-5.938228 4.23072,-8.951108 0.729173,-2.31487 1.381553,-5.82671 1.203192,-6.47688 z"
       id="path575" /><path
       style="fill:#000000;stroke:#000000;stroke-width:0.56186;stroke-dasharray:none;stroke-opacity:1"
       d="m 163.584,105.7247 c -0.61671,0.39822 -1.51918,0.81641 -2.00548,0.92932 l -0.88419,0.20529 -0.62078,1.40825 c -0.78142,1.77267 -1.87046,2.85901 -3.51065,3.50196 -0.60724,0.23806 -1.12209,0.5273 -1.14413,0.64278 -0.0216,0.11555 -0.27669,0.59175 -0.56578,1.05846 -0.43165,0.69652 -0.7237,0.9616 -1.63126,1.48048 -0.60802,0.34767 -1.68068,1.17632 -2.3837,1.84148 -1.14474,1.08313 -1.35722,1.21283 -2.03491,1.24213 -1.00362,0.0434 -1.65039,-0.53841 -1.65535,-1.48915 -0.002,-0.38559 0.04,-0.74857 0.0927,-0.80669 0.0533,-0.058 -7.3e-4,-0.25687 -0.11997,-0.44177 -0.11923,-0.18488 -0.15205,-0.62415 -0.0729,-0.97616 0.0792,-0.35199 0.0334,-0.89297 -0.10168,-1.20212 -0.13505,-0.30918 -0.18499,-0.94339 -0.11094,-1.40938 0.10129,-0.63735 0.0154,-1.03445 -0.34685,-1.60297 -0.61811,-0.97015 -0.69278,-2.47242 -0.17244,-3.46981 0.35502,-0.68052 0.34715,-0.87269 -0.0804,-1.9542 -1.04476,-2.64319 -0.70569,-5.763825 0.87367,-8.040956 0.39957,-0.576175 0.96231,-1.641783 1.25027,-2.368159 0.74759,-1.884982 2.31053,-4.031505 3.90419,-5.361837 1.24855,-1.042285 2.10156,-1.539587 5.58157,-3.254096 2.31234,-1.139205 3.62616,-2.338578 4.10063,-3.743398 0.4032,-1.193911 0.49427,-1.294123 1.2941,-1.424946 0.94134,-0.153935 1.61382,0.53959 2.09003,2.155466 0.46704,1.584752 0.90303,4.530825 0.78096,5.277076 -0.0554,0.338569 0.29041,1.510261 0.88176,2.987733 1.14703,2.865775 1.57466,4.824015 1.4474,6.627974 -0.22966,3.255623 -2.09867,6.406543 -4.85638,8.187173 z m 2.71837,-4.19025 c 0.91996,-1.552674 1.25466,-3.01599 1.16901,-5.110578 -0.0701,-1.715426 -0.21529,-2.302113 -1.16955,-4.727531 -0.83323,-2.117741 -1.09079,-3.051675 -1.09509,-3.970628 -0.007,-1.412057 -0.60202,-4.754503 -1.00332,-5.632094 -0.5358,-1.171712 -1.2048,-1.00687 -1.34784,0.332087 -0.19936,1.870535 -1.59107,4.105436 -4.07535,6.546826 -1.99049,1.956123 -3.82545,3.272584 -6.80406,4.881457 -1.92082,1.037532 -2.30763,1.321451 -3.3536,2.461529 -1.5183,1.654935 -2.05197,2.95048 -2.0555,4.989992 -0.002,1.43041 0.4693,3.43742 0.90147,3.83513 0.118,0.10859 0.59127,0.10895 1.05181,7.9e-4 1.18473,-0.27816 3.28299,-0.13456 5.69442,0.3897 2.19733,0.47772 6.31856,0.55503 7.46265,0.14 1.66088,-0.60252 3.51191,-2.25811 4.62495,-4.13668 z m -7.1514,6.67801 c 0.61308,-1.22384 0.56848,-1.27229 -1.19513,-1.29785 -0.89286,-0.013 -2.62953,-0.2335 -3.85924,-0.49013 -2.3984,-0.50055 -4.08716,-0.60871 -5.63518,-0.36086 -0.90216,0.14442 -0.9892,0.2004 -1.26568,0.81388 -0.43068,0.95565 -0.41802,2.06131 0.0319,2.78504 0.34713,0.55839 0.54443,0.67628 1.70296,1.01765 2.80364,0.82592 6.35252,0.83103 7.89205,0.0114 0.70667,-0.37622 1.92446,-1.67283 2.32832,-2.47896 z m -4.72395,4.16938 c -0.003,-0.0733 -0.66531,-0.14265 -1.47146,-0.15395 -0.8061,-0.0115 -2.28711,-0.21378 -3.2911,-0.44968 -1.004,-0.23582 -1.87215,-0.37792 -1.92923,-0.31567 -0.16905,0.1844 0.0788,1.64587 0.3161,1.86351 0.43694,0.40073 3.1683,0.97075 4.19035,0.8745 0.98692,-0.093 1.0813,-0.14492 1.61954,-0.89205 0.31436,-0.43633 0.56896,-0.85329 0.56583,-0.92654 z m -4.85119,2.39248 c -1.64776,-0.43744 -1.95412,-0.40688 -1.62708,0.16263 0.446,0.77666 2.44109,1.10608 3.00103,0.49552 0.17426,-0.19001 -0.093,-0.31805 -1.37395,-0.65815 z m -0.17349,1.9 c -0.0434,-0.0397 -0.37084,-0.15146 -0.72791,-0.24831 -0.57849,-0.15695 -0.64722,-0.13103 -0.63127,0.23781 0.0142,0.32667 0.1132,0.43835 0.46981,0.52973 0.39151,0.10031 1.10846,-0.31825 0.88936,-0.5192 z m 11.35231,-31.481826 c 0.0497,-0.190077 -0.13994,-0.130327 -0.5352,0.168335 -0.33656,0.25438 -1.76317,1.025314 -3.17026,1.713212 -1.40709,0.687881 -2.9971,1.573534 -3.53338,1.968127 -1.12518,0.827908 -3.32647,3.410563 -3.86035,4.529149 l -0.35015,0.73357 2.33362,-1.287568 c 2.70475,-1.492331 4.266,-2.575306 5.97483,-4.144512 1.31293,-1.20566 3.01595,-3.201176 3.14088,-3.680323 z"
       id="path575-3" /></g></svg>
